<?xml version="1.0" standalone="no"?>
<!DOCTYPE svg PUBLIC "-//W3C//DTD SVG 20010904//EN"
 "http://www.w3.org/TR/2001/REC-SVG-20010904/DTD/svg10.dtd">
<svg version="1.0" xmlns="http://www.w3.org/2000/svg"
 width="70.000000pt" height="70.000000pt" viewBox="0 0 70.000000 70.000000"
 preserveAspectRatio="xMidYMid meet">
<metadata>
Created by potrace 1.14, written by Peter Selinger 2001-2017
</metadata>
<g transform="translate(0.000000,70.000000) scale(0.100000,-0.100000)"
fill="#000000" stroke="none">
<path d="M334 683 c3 -6 -1 -14 -9 -17 -21 -8 -48 -54 -54 -94 -6 -32 -9 -36
-39 -37 -28 -1 -33 2 -29 17 3 10 1 21 -4 24 -5 3 -9 -4 -9 -15 0 -21 -8 -24
-62 -23 -24 1 -28 -4 -29 -26 0 -15 -2 -43 -4 -62 -1 -19 -6 -118 -10 -220 -4
-102 -7 -187 -7 -190 -2 -29 5 -30 282 -30 217 0 280 3 281 13 2 25 1 77 -7
247 -4 96 -7 194 -7 218 -1 23 -4 43 -9 43 -4 1 -22 2 -39 3 -29 1 -33 5 -44
51 -15 56 -62 105 -105 106 -14 0 -42 1 -63 2 -25 1 -36 -2 -33 -10z m99 -56
c14 -21 21 -55 18 -82 -1 -6 -36 -10 -86 -10 -83 0 -85 0 -85 23 0 37 27 86
57 104 24 14 31 14 54 3 14 -8 33 -25 42 -38z m38 36 c32 -19 59 -68 59 -105
0 -20 -5 -24 -22 -22 -13 1 -28 3 -35 3 -6 1 -10 10 -8 20 5 27 -32 96 -58
109 -21 10 -21 11 6 11 16 1 42 -7 58 -16z"/>
<path d="M259 675 c-28 -15 -59 -56 -59 -77 0 -7 8 1 18 17 23 37 38 49 77 63
21 7 24 11 10 11 -11 0 -32 -6 -46 -14z"/>
</g>
</svg>
